<svg xmlns="http://www.w3.org/2000/svg" xmlns:xlink="http://www.w3.org/1999/xlink" x="0" y="0" version="1.1" viewBox="0 0 100 100" style="enable-background:new 0 0 100 100" xml:space="preserve"><style type="text/css">.st0{fill:none;stroke:#fff;stroke-miterlimit:10}.st1{fill:#b5b5b6}.st2{fill:#5fb5dc}.st3{fill:#f4d050}.st4{fill:#818082}</style><g id="Layer_2"><line x1="0" x2="100" y1="50.2" y2="50.2" class="st0"/></g><g id="Layer_3"><polygon points="56 2.8 11 28.6 9.5 30.9 9 33.4 9 72.8 9.5 73.8 11 74.5 58.1 47.4 59.8 47.1 59.8 5.2 59.5 3.5" class="st1"/><polygon points="56.6 9.6 13.9 34 13.9 67.7 56.6 43.5" class="st2"/><polygon points="61.2 47.4 95.4 67 96 70.1 50 96.7 47.4 97.2 42.1 94.7 11 77.6 11 74.5 58.1 47.4 59.8 47.1" class="st1"/><polygon points="62.8 51.1 19.4 76.9 35.6 86.1 79 60.1" class="st3"/><polygon points="67.4 70 53.5 78 53.5 79 61.6 83.5 62.9 83.5 76.2 76.1 76.2 75.1" class="st4"/></g><g id="Layer_1"><path d="M35.7,19.5c0.2-0.1,0.4-0.4,0.4-0.7c0-0.2-0.2-0.3-0.5-0.2c-0.2,0.1-0.4,0.4-0.4,0.7C35.3,19.6,35.5,19.7,35.7,19.5z"/><path d="M56.2,8.9L13.6,33.5c-0.2,0.1-0.2,0.3-0.2,0.4v33.9c0,0.2,0.1,0.3,0.2,0.4c0.1,0,0.2,0.1,0.3,0.1c0.1,0,0.2,0,0.2-0.1 l42.6-24.5c0.2-0.1,0.3-0.3,0.3-0.4v-34c0-0.2-0.1-0.3-0.2-0.4C56.5,8.8,56.4,8.8,56.2,8.9z M56,43L14.4,67V34.2l41.6-24V43z"/><path d="M96.3,67.3c0-0.5-0.2-1.1-0.7-1.4L62.8,47.3c-0.9-0.5-1.7-0.8-2.4-0.8c0-0.2,0-0.4,0-0.5l0-40.3c0-0.2,0-1.9-0.7-2.6 c0,0-0.5-0.4-1.1-0.4c-1.9-0.7-3.4,0.1-3.5,0.1L12.2,27.4c-2.3,1.2-3,2.8-3,2.8c-0.8,1.4-0.7,4.8-0.7,5.1v37.5 c0,0.6,0.5,1.9,2.2,2.2l0,1.6c0,0.1,0,0.9,1.2,1.5c5.2,3,32.2,18.2,32.3,18.3c0.1,0,1.9,1.2,3.3,1.2c0,0,0,0,0,0c0,0,0.1,0,0.2,0 c0.5,0,1.9-0.2,4.3-1.4l2.5-1.4l38.4-22.8c0.4-0.2,0.8-0.4,1.1-0.6c0.5-0.3,0.9-0.5,1.4-0.8c0.1-0.1,0.9-0.6,0.9-1.4L96.3,67.3 L96.3,67.3z M95.1,66.8c0.2,0.1,0.3,0.4,0.2,0.5c-0.1,0.2-0.3,0.4-0.7,0.6L76,79c-0.3-0.2-0.7-0.2-1,0l-5.8,3.4 c-0.3,0.2-0.5,0.6-0.5,0.9L54,92l-2.5,1.4c-2.2,1.2-3.5,1.3-3.8,1.3c-0.1,0-0.1,0-0.1,0c-1,0-2.4-0.7-2.9-1 C44.4,93.5,18.2,78.9,12,75.3c0,0-0.3-0.2-0.3-0.6c0-0.2,0.3-0.4,0.5-0.5L58,48c0.1-0.1,2-1.3,4.3,0.1L95.1,66.8z M75.6,80.1 l-5.8,3.4c-0.1,0.1-0.3,0-0.4-0.1c-0.1-0.1,0-0.3,0.1-0.4l5.8-3.4c0,0,0.1,0,0.1,0c0.1,0,0.2,0.1,0.3,0.1 C75.8,79.8,75.7,80,75.6,80.1z M59.5,5.6l0,40.3c0,0.2,0,0.5,0,0.5c-1.1,0.1-1.9,0.7-1.9,0.7L11.7,73.4c-0.1,0-0.4,0.2-0.6,0.5 c0-0.1,0-0.2,0-0.3L11,36c0-0.9,0-3.6,0.6-4.7c0,0,0.7-1.4,2.6-2.4L56.8,4.4L58,3.6c0.6-0.2,1,0.1,1,0.1C59.4,4,59.5,5,59.5,5.6z M9.5,72.9l0-37.5c0-0.9,0-3.6,0.6-4.7c0,0,0.6-1.4,2.6-2.4L55.5,3.6c0,0,0.4-0.2,1.1-0.3L13.7,28c-2.2,1.2-3,2.8-3,2.8 C9.9,32.2,10,35.6,10,36v37.6c0,0,0,0.1,0,0.2C9.5,73.4,9.5,72.9,9.5,72.9z M94.9,69.8c-0.5,0.3-0.9,0.5-1.4,0.8 c-0.4,0.2-0.7,0.4-1.1,0.6L54,94l-2.5,1.4c-2.2,1.2-3.5,1.3-3.8,1.3c-0.1,0-0.1,0-0.1,0c-1,0-2.4-0.7-2.9-1 c-0.2-0.1-27-15.3-32.3-18.3c-0.6-0.3-0.7-0.7-0.7-0.7l0-0.4C18.1,80,44,94.5,44.1,94.5c0.1,0,1.9,1.2,3.3,1.2c0,0,0,0,0,0 c0,0,0.1,0,0.2,0c0.5,0,1.9-0.2,4.3-1.4l2.5-1.4l14.7-8.7c0.2,0.1,0.3,0.1,0.5,0.1c0.2,0,0.4,0,0.5-0.1l5.8-3.4c0,0,0,0,0,0 c0.3-0.2,0.5-0.6,0.5-1l18.7-11.1c0,0,0.1-0.1,0.1-0.1v0.7C95.4,69.5,95.1,69.7,94.9,69.8z"/><path d="M76.5,74.4C76.5,74.4,76.5,74.4,76.5,74.4L68.9,70c-1.4-0.7-2.6-0.1-2.6-0.1l-12.8,7.4c-0.1,0-0.7,0.4-0.8,1 c0,0.4,0.2,0.8,0.7,1.1l7.4,4.2c0,0,0.7,0.4,1.6,0.4c0.5,0,1-0.1,1.5-0.4l12.2-7c0.2-0.1,0.9-0.5,1-1.2 C77.2,75.2,77.1,74.7,76.5,74.4z M75.8,75.8l-12.2,7c-1.1,0.6-2.1,0-2.2,0L54,78.6c-0.2-0.1-0.2-0.2-0.2-0.2c0,0,0.1-0.1,0.2-0.2 l12.8-7.4c0,0,0.8-0.4,1.7,0.1l7.6,4.3c0.2,0.1,0.2,0.2,0.2,0.2C76.2,75.5,76,75.7,75.8,75.8z"/><path d="M79.4,60.3c0-0.2,0-0.5-0.4-0.7l-15.2-8.7c-1-0.6-2-0.1-2,0l-42.1,25c-0.5,0.3-0.7,0.6-0.7,1c0,0.4,0.3,0.7,0.6,0.9 l14.9,8.7c0.2,0.1,0.5,0.3,0.9,0.3c0.3,0,0.5-0.1,0.8-0.2L78.9,61C79,61,79.4,60.7,79.4,60.3z M35.7,85.5c-0.4,0.2-0.8,0-0.8,0 l-15-8.7c0,0,0,0,0,0c0,0,0.1-0.1,0.2-0.1l42.1-25c0,0,0.5-0.3,1,0l14.9,8.6L35.7,85.5z"/></g></svg>