<svg xmlns="http://www.w3.org/2000/svg" viewBox="0 0 145.2 75.1"><defs><style>.cls-1{isolation:isolate;}.cls-2{fill:#fff;}.cls-3,.cls-4,.cls-5,.cls-6,.cls-7,.cls-8{fill:none;}.cls-3{stroke:#2fb6df;}.cls-3,.cls-4,.cls-5,.cls-6,.cls-7{stroke-linecap:round;stroke-miterlimit:10;stroke-width:3.59px;mix-blend-mode:multiply;}.cls-4{stroke:#d6aacd;}.cls-5{stroke:#b5b5b6;}.cls-6{stroke:#ea6a3f;}.cls-7{stroke:#fbd026;}</style></defs><g class="cls-1"><g id="Layer_1" data-name="Layer 1"><circle class="cls-2" cx="37.5" cy="37.5" r="33.8"/><line class="cls-3" x1="48.3" y1="9.5" x2="56.6" y2="59.2"/><line class="cls-3" x1="27.7" y1="20.5" x2="56.6" y2="59.2"/><line class="cls-4" x1="8.6" y1="40" x2="27.7" y2="20.5"/><line class="cls-5" x1="8.6" y1="40" x2="56.6" y2="59.2"/><line class="cls-3" x1="56.6" y1="59.2" x2="61.9" y2="44.4"/><line class="cls-6" x1="27.7" y1="20.5" x2="61.9" y2="44.4"/><line class="cls-5" x1="8.6" y1="40" x2="61.9" y2="44.4"/><line class="cls-7" x1="48.3" y1="9.5" x2="61.9" y2="44.4"/><circle class="cls-8" cx="37.5" cy="37.5" r="37.5"/><g class="cls-1"><path class="cls-2" d="M92.9,22.8a5.79,5.79,0,0,1,6.5,2.7,1.22,1.22,0,0,1-.5,1.7,1.31,1.31,0,0,1-1.7-.5A3.31,3.31,0,0,0,91,28.3v13a3.4,3.4,0,0,0,6.8,0V36.4H95.2a1.2,1.2,0,0,1,0-2.4H99a1.16,1.16,0,0,1,1.2,1.2v6.1a5.8,5.8,0,1,1-11.6,0v-13A5.76,5.76,0,0,1,92.9,22.8Z"/><path class="cls-2" d="M110.3,44.7a3.44,3.44,0,0,0,3.4-3.4V23.8a1.16,1.16,0,0,1,1.2-1.2,1.22,1.22,0,0,1,1.2,1.2V41.4a5.8,5.8,0,1,1-11.6,0V23.8a1.16,1.16,0,0,1,1.2-1.2,1.22,1.22,0,0,1,1.2,1.2V41.4A3.35,3.35,0,0,0,110.3,44.7Z"/><path class="cls-2" d="M121,46V23.8a1.22,1.22,0,0,1,1.2-1.2,1.16,1.16,0,0,1,1.2,1.2V46a1.16,1.16,0,0,1-1.2,1.2A1.22,1.22,0,0,1,121,46Z"/></g></g></g></svg>