<svg xmlns="http://www.w3.org/2000/svg" viewBox="0 0 302.87 76.1"><defs><style>.cls-1{isolation:isolate}.cls-1,.cls-2,.cls-3,.cls-4,.cls-5,.cls-6{fill:none}.cls-7{fill:#fff}.cls-2{stroke:#ea6a3f}.cls-2,.cls-3,.cls-4,.cls-5,.cls-6{mix-blend-mode:multiply;stroke-linecap:round;stroke-miterlimit:10;stroke-width:3.59px}.cls-3{stroke:#fbd026}.cls-4{stroke:#d6aacd}.cls-5{stroke:#2fb6df}.cls-6{stroke:#b5b5b6}</style></defs><g class="cls-1"><g id="GUI"><path d="m98.39,51.93c-2.16,0-3.75-.71-4.77-2.14-1.02-1.42-1.53-3.58-1.53-6.46v-12.64c0-2.85.6-5.02,1.8-6.52,1.2-1.5,2.92-2.25,5.17-2.25,2.37,0,4.15.83,5.35,2.48,1.2,1.65,1.68,3.93,1.44,6.84,0,.24-.11.36-.32.36h-2.34c-.24,0-.33-.12-.27-.36.21-2.04-.03-3.63-.72-4.77-.69-1.14-1.71-1.71-3.06-1.71s-2.42.5-3.11,1.49c-.69.99-1.03,2.52-1.03,4.59v12.28c0,2.13.3,3.66.9,4.59.6.93,1.6,1.39,3.02,1.39s2.47-.57,3.19-1.71c.72-1.14,1.08-2.89,1.08-5.26v-2.52h-3.73c-.21,0-.32-.14-.32-.4v-1.98c0-.27.1-.41.32-.41h6.25c.21,0,.31.14.31.41v8.68c0,1.32.01,2.36.04,3.13.03.77.09,1.49.18,2.18.03.3-.06.45-.27.45h-1.84c-.24,0-.36-.1-.36-.32-.06-.39-.11-.84-.13-1.35-.03-.51-.06-1.15-.09-1.93h-.04c-.39,1.2-1.01,2.14-1.87,2.83-.85.69-1.94,1.03-3.26,1.03Z" class="cls-7"/><path d="m117.42,51.93c-2.37,0-4.1-.76-5.2-2.29-1.1-1.53-1.64-3.84-1.64-6.93v-20.16c0-.24.1-.36.31-.36h2.29c.21,0,.32.12.32.36v20.11c0,2.22.31,3.85.92,4.88.61,1.04,1.61,1.55,2.99,1.55s2.42-.51,3.04-1.53.92-2.66.92-4.91v-20.11c0-.24.1-.36.32-.36h2.29c.21,0,.31.12.31.36v20.16c0,3.09-.57,5.4-1.71,6.93-1.14,1.53-2.87,2.29-5.17,2.29Z" class="cls-7"/><path d="m129.12,51.66c-.21,0-.32-.13-.32-.41v-28.66c0-.27.1-.41.32-.41h2.29c.21,0,.31.14.31.41v28.66c0,.27-.11.41-.31.41h-2.29Z" class="cls-7"/></g><g id="Circle"><circle cx="38" cy="38" r="33.8" class="cls-7"/></g><g id="Logo"><line x1="48.8" x2="57.1" y1="10" y2="59.7" class="cls-5"/><line x1="28.2" x2="57.1" y1="21" y2="59.7" class="cls-5"/><line x1="9.1" x2="28.2" y1="40.5" y2="21" class="cls-4"/><line x1="9.1" x2="57.1" y1="40.5" y2="59.7" class="cls-6"/><line x1="57.1" x2="62.4" y1="59.7" y2="44.9" class="cls-5"/><line x1="28.2" x2="62.4" y1="21" y2="44.9" class="cls-2"/><line x1="9.1" x2="62.4" y1="40.5" y2="44.9" class="cls-6"/><line x1="48.8" x2="62.4" y1="10" y2="44.9" class="cls-3"/></g></g></svg>