<svg xmlns="http://www.w3.org/2000/svg" xmlns:svg="http://www.w3.org/2000/svg" id="svg5" width="796.155" height="298.856" version="1.1" viewBox="0 0 210.649 79.072" xml:space="preserve"><defs id="defs2"><marker style="overflow:visible" id="marker15791-9-9-4-0-6" markerHeight="6" markerWidth="5" orient="auto-start-reverse" preserveAspectRatio="xMidYMid" refX="0" refY="0" viewBox="0 0 5 6"><path style="fill:context-stroke;fill-rule:evenodd;stroke:none" id="path15789-0-9-1-1-7" d="m 1,0 -3,3 h -2 l 3,-3 -3,-3 h 2 z"/></marker></defs><g id="layer1" transform="translate(-10.974967,-86.451048)"><path style="fill:none;stroke:#000;stroke-width:.508899;stroke-linecap:round;stroke-linejoin:round" id="path346" d="m 17.389622,103.35667 22.135347,-0.0623 v -12.1311 h 76.007841 v 12.06919 l 13.80207,-0.0336"/><path id="path3982" d="m 147.0585,124.43743 h -21.78217 m -76.299891,0 66.556371,-0.12382 v -11.90803 h 9.48578 v 11.90802 m -107.310115,0.12383 h 21.782178 v -11.90802 h 9.485786 v 11.90802" style="fill:none;stroke:#000;stroke-width:.600934;stroke-linecap:round;stroke-linejoin:round"/><text style="font-style:normal;font-variant:normal;font-weight:400;font-stretch:normal;font-size:4.93889px;font-family:'Arial ITC';-inkscape-font-specification:'Arial ITC';text-align:center;text-anchor:middle;fill:none;stroke:#000;stroke-width:.600001;stroke-linecap:round;stroke-linejoin:round" id="text4282" x="184.954" y="119.884" xml:space="preserve"><tspan id="tspan4280" x="184.954" y="119.884" style="font-style:normal;font-variant:normal;font-weight:400;font-stretch:normal;font-size:4.93889px;font-family:Sans;-inkscape-font-specification:Sans;fill:#000;stroke:none;stroke-width:.6">Edge toggle (Rising)</tspan></text><text style="font-style:normal;font-variant:normal;font-weight:400;font-stretch:normal;font-size:4.93889px;font-family:'Arial ITC';-inkscape-font-specification:'Arial ITC';text-align:center;text-anchor:middle;fill:none;stroke:#000;stroke-width:.600001;stroke-linecap:round;stroke-linejoin:round" id="text4282-4" x="180.968" y="98.722" xml:space="preserve"><tspan id="tspan4280-3" x="180.968" y="98.722" style="font-style:normal;font-variant:normal;font-weight:400;font-stretch:normal;font-size:4.93889px;font-family:Sans;-inkscape-font-specification:Sans;fill:#000;stroke:none;stroke-width:.6">Edge set (Rising)</tspan></text><text style="font-style:normal;font-variant:normal;font-weight:400;font-stretch:normal;font-size:4.93889px;font-family:'Arial ITC';-inkscape-font-specification:'Arial ITC';text-align:center;text-anchor:middle;fill:none;stroke:#000;stroke-width:.600001;stroke-linecap:round;stroke-linejoin:round" id="text4282-4-6-1-2" x="187.248" y="136.696" xml:space="preserve"><tspan id="tspan4280-3-4-5-4" x="187.248" y="136.696" style="font-style:normal;font-variant:normal;font-weight:400;font-stretch:normal;font-size:4.93889px;font-family:Sans;-inkscape-font-specification:Sans;fill:#000;stroke:none;stroke-width:.6">Acquistion/Recording</tspan></text><text style="font-style:normal;font-variant:normal;font-weight:400;font-stretch:normal;font-size:4.93889px;font-family:'Arial ITC';-inkscape-font-specification:'Arial ITC';text-align:center;text-anchor:middle;fill:none;stroke:#000;stroke-width:.600001;stroke-linecap:round;stroke-linejoin:round" id="text4282-4-6-1-2-5" x="188.791" y="148.582" xml:space="preserve"><tspan id="tspan4280-3-4-5-4-6" x="188.791" y="148.582" style="font-style:normal;font-variant:normal;font-weight:400;font-stretch:normal;font-size:4.93889px;font-family:Sans;-inkscape-font-specification:Sans;fill:#000;stroke:none;stroke-width:.6">Equivalent GUI buttons</tspan></text><text style="font-size:4.93889px;font-family:Miso;-inkscape-font-specification:Miso;fill:#000;fill-opacity:1;stroke:none;stroke-width:.416999;stroke-linejoin:round;stroke-dasharray:none;stroke-dashoffset:0;stroke-opacity:.556863" id="text17605-9-4-4-5-0-1-3" x="114.326" y="160.788" xml:space="preserve"><tspan id="tspan17603-24-6-7-2-4-7-1" x="114.326" y="160.788" style="font-style:normal;font-variant:normal;font-weight:400;font-stretch:normal;font-size:4.93889px;font-family:Sans;-inkscape-font-specification:Sans;stroke-width:.417">Time</tspan></text><path style="fill:none;fill-opacity:1;stroke:#000;stroke-width:.335;stroke-linejoin:round;stroke-dasharray:none;stroke-dashoffset:0;stroke-opacity:1;marker-start:url(#marker15791-9-9-4-0-6)" id="path19127-1-6-1-9-9" d="m 146.24914,158.99315 c -15.58549,0 -16.65809,0.011 -16.65809,0.011"/><g id="g1" transform="translate(1.9478619,-0.61913712)"><g id="g5" transform="translate(0,-3.2386822)"><path style="fill:none;stroke:#b4b4b4;stroke-width:1.80016;stroke-linejoin:round;stroke-dasharray:none;stroke-opacity:.745098" id="path1" d="m 15.187311,139.11986 22.389796,-0.0553"/><path style="fill:#666;stroke:#b4b4b4;stroke-width:1.79135;stroke-linejoin:round;stroke-dasharray:none;stroke-opacity:.745098" id="path1-8" d="m 113.58491,139.08771 31.69791,0.009"/><path style="fill:none;stroke:red;stroke-width:1.88833;stroke-linejoin:round;stroke-dasharray:none" id="path1-4" d="M 37.577107,139.09221 H 113.58495"/></g></g><g id="g4" transform="translate(1.9478619,-0.61913712)"><path style="opacity:.743697;fill:#b4b4b4;fill-opacity:1;stroke:none;stroke-width:.391001;stroke-linecap:square;paint-order:stroke fill markers" id="path3" d="M 100.28693,209.81058 77.899157,222.73616 V 196.88499 Z" transform="matrix(0.26800343,0,0,0.27078074,-5.6921532,90.920689)"/><path style="opacity:.743697;fill:#b4b4b4;fill-opacity:1;stroke:none;stroke-width:.369565;stroke-linecap:square;paint-order:stroke fill markers" id="path4" d="m 40.577106,147.73335 a 3,3 0 0 1 -2.996053,3 3,3 0 0 1 -3.003936,-2.9921 3,3 0 0 1 2.988149,-3.00787 3,3 0 0 1 3.011799,2.98419"/><path style="opacity:1;fill:#ff0;fill-opacity:1;stroke:none;stroke-width:.369565;stroke-linecap:square;paint-order:stroke fill markers" id="path4-0" d="m 116.92616,147.73335 a 3,3 0 0 1 -2.99605,3 3,3 0 0 1 -3.00394,-2.9921 3,3 0 0 1 2.98815,-3.00787 3,3 0 0 1 3.0118,2.98419"/><path style="opacity:1;fill:#ff0;fill-opacity:1;stroke:none;stroke-width:.391001;stroke-linecap:square;paint-order:stroke fill markers" id="path3-5" d="M 100.28693,209.81058 77.899157,222.73616 V 196.88499 Z" transform="matrix(0.26800343,0,0,0.27078074,123.75904,90.920689)"/></g></g></svg>